<svg version="1.1" width="32" height="32" xmlns="http://www.w3.org/2000/svg" xmlns:xlink="http://www.w3.org/1999/xlink">
  <!-- Exported by Scratch - http://scratch.mit.edu/ -->
  <path id="path1435" fill="#ddd" stroke-width="0.3057889" d="M 4.233 289.436 C 5.152 289.436 5.985 289.809 6.588 290.412 C 7.191 291.015 7.564 291.848 7.564 292.767 C 7.564 293.686 7.191 294.518 6.588 295.121 C 5.985 295.724 5.152 296.098 4.233 296.098 C 3.314 296.098 2.482 295.724 1.879 295.121 C 1.276 294.518 0.902 293.686 0.902 292.767 C 0.902 291.848 1.276 291.015 1.879 290.412 C 2.482 289.809 3.314 289.436 4.233 289.436 Z " transform="matrix(4.775853633880615, 0, 0, 4.775853633880615, -4.05, -1382.1)"/>
  <g id="ID0.8661412931978703" transform="matrix(0.4411575198173523, 0, 0, 0.4411575198173523, -63.75, -63.05)">
    <path id="ID0.8452634159475565" fill="none" stroke="#00EE00" stroke-width="4" stroke-linecap="round" d="M 229.750 189.900 L 234.500 169.200 " transform="matrix(1.7539880275726318, 0.06760162115097046, -0.06760162115097046, 1.7539880275726318, -226.6, -150.8)"/>
    <path id="ID0.17018366372212768" fill="#00EE00" stroke="#00EE00" stroke-width="2" stroke-linecap="round" d="M 171.500 169 C 171.084 169.693 170.699 172.239 170.300 173.850 C 170.116 174.595 169.946 175.346 169.800 176.100 C 169.646 176.895 169.574 177.709 169.400 178.500 C 168.775 181.340 167.970 184.149 167.400 187 C 167.257 187.713 167.573 188.391 167.300 189 C 167.035 189.591 165.900 190.350 165.900 190.350 C 165.700 190.700 167.300 190.100 168.200 190 C 168.800 189.800 169.500 189.900 170.200 190 C 171.500 190.100 172.900 190.200 174.200 190.600 C 175.500 191 176.800 191.600 178 192.300 C 179.100 193 180.100 193.900 181.200 194.800 C 181.700 195.200 182.100 195.800 182.700 196.200 C 183.200 196.500 183.800 197 184.400 197.200 C 185 197.300 185.700 197.300 186.400 197.300 C 187.700 197.300 189.100 197.400 190.400 197.300 C 191.100 197.300 191.700 197.200 192.400 197.100 C 193.100 196.900 193.800 196.900 194.500 196.700 C 195.200 196.400 195.900 196.200 196.500 195.800 C 197.100 195.400 197.600 194.900 198 194.300 C 198.400 193.700 198.600 193.100 198.800 192.500 C 199.100 191.800 199.200 191.100 199.500 190.500 C 199.800 189.800 200.200 189.200 200.400 188.600 C 200.800 187.200 201.100 185.800 201.500 184.500 C 201.700 183.800 202 183.200 202.200 182.600 C 202.500 181.200 202.900 179.900 203.200 178.600 C 203.300 177.900 203.300 177.100 203.500 176.500 C 203.700 175.700 204.200 175 204.200 174.300 C 204.200 173.600 204.100 172.600 203.500 172.300 C 202.900 172 202.200 172.600 201.500 172.800 C 200.800 173 200.200 173.100 199.500 173.300 C 198.800 173.500 198.200 173.700 197.500 173.800 C 196.100 174 194.800 174.100 193.400 174.200 C 192.700 174.200 192 174.200 191.300 174 C 190.600 173.700 190 173.400 189.500 173 C 189 172.500 188.600 171.900 188.200 171.300 C 187.500 170.300 186.800 169.200 186 168.300 C 185.400 167.600 184.700 166.900 183.800 166.600 C 182.900 166.200 181.900 166.100 180.900 166.200 C 179.200 166.200 177.485 166.496 175.800 167 C 174.309 167.415 172.180 168.502 171.700 169.100 Z " transform="matrix(0.8936094045639038, 0.03941905125975609, -0.036082252860069275, 0.8179666996002197, 26.05, 19.55)"/>
  </g>
</svg>