<svg version="1.1" xmlns="http://www.w3.org/2000/svg" xmlns:xlink="http://www.w3.org/1999/xlink" width="15.16773" height="15.47519" viewBox="0,0,15.16773,15.47519"><g transform="translate(-232.44147,-172.21187)"><g data-paper-data="{&quot;isPaintingLayer&quot;:true}" fill-rule="nonzero" stroke="none" stroke-width="0" stroke-linecap="butt" stroke-linejoin="miter" stroke-miterlimit="10" stroke-dasharray="" stroke-dashoffset="0" style="mix-blend-mode: normal"><path d="M232.44147,187.68706v-15.47519h15.16773v15.47519z" fill="none"/><g><path d="M238.31803,174.56569c0,-0.92877 0.75292,-1.68169 1.68169,-1.68169c0.92877,0 1.68169,0.75292 1.68169,1.68169c0,0.92877 -0.75292,1.68169 -1.68169,1.68169c-0.92877,0 -1.68169,-0.75292 -1.68169,-1.68169z" fill="#d8d8d8"/><path d="M238.7848,174.56937c0,-0.69994 0.56741,-1.26736 1.26736,-1.26736c0.69994,0 1.26736,0.56742 1.26736,1.26736c0,0.69994 -0.56742,1.26736 -1.26736,1.26736c-0.69994,0 -1.26736,-0.56741 -1.26736,-1.26736z" fill="#ffffff"/></g><g><path d="M238.31831,180c0,-0.92877 0.75292,-1.68169 1.68169,-1.68169c0.92877,0 1.68169,0.75292 1.68169,1.68169c0,0.92877 -0.75292,1.68169 -1.68169,1.68169c-0.92877,0 -1.68169,-0.75292 -1.68169,-1.68169z" fill="#d8d8d8"/><path d="M238.78507,180.00368c0,-0.69994 0.56741,-1.26736 1.26736,-1.26736c0.69994,0 1.26736,0.56742 1.26736,1.26736c0,0.69994 -0.56742,1.26736 -1.26736,1.26736c-0.69994,0 -1.26736,-0.56741 -1.26736,-1.26736z" fill="#ffffff"/></g><g><path d="M238.3254,185.39435c0,-0.92877 0.75292,-1.68169 1.68169,-1.68169c0.92877,0 1.68169,0.75292 1.68169,1.68169c0,0.92877 -0.75292,1.68169 -1.68169,1.68169c-0.92877,0 -1.68169,-0.75292 -1.68169,-1.68169z" fill="#d8d8d8"/><path d="M238.79216,185.39803c0,-0.69994 0.56741,-1.26736 1.26736,-1.26736c0.69994,0 1.26736,0.56742 1.26736,1.26736c0,0.69994 -0.56742,1.26736 -1.26736,1.26736c-0.69994,0 -1.26736,-0.56741 -1.26736,-1.26736z" fill="#ffffff"/></g></g></g></svg>