<svg version="1.1" xmlns="http://www.w3.org/2000/svg" xmlns:xlink="http://www.w3.org/1999/xlink" width="14.86281" height="13.78439" viewBox="0,0,14.86281,13.78439"><g transform="translate(-232.44359,-173.1078)"><g data-paper-data="{&quot;isPaintingLayer&quot;:true}" fill-rule="nonzero" stroke-linejoin="miter" stroke-miterlimit="10" stroke-dasharray="" stroke-dashoffset="0" style="mix-blend-mode: normal"><path d="M233.44359,185.8922l2.80045,-11.78439" fill="none" stroke="#2fe200" stroke-width="2" stroke-linecap="round"/><path d="M246.35212,176.40922c0,0 -1.40847,1.23053 -3.38174,0.81407c-1.72343,-0.36373 -1.61034,-1.95883 -3.3552,-2.42121c-1.79699,-0.47619 -3.18101,0.69467 -3.18101,0.69467" fill="none" stroke="#2fe200" stroke-width="1.5" stroke-linecap="round"/><path d="M244.95319,182.58069c0,0 -1.40847,1.23053 -3.38174,0.81407c-1.72343,-0.36373 -1.61034,-1.95883 -3.3552,-2.42121c-1.79699,-0.47619 -3.18101,0.69467 -3.18101,0.69467" fill="none" stroke="#2fe200" stroke-width="1.5" stroke-linecap="round"/><path d="M246.55641,176.39626l-1.64539,6.19977" fill="none" stroke="#2fe200" stroke-width="1.5" stroke-linecap="round"/><path d="M234.58448,181.7095l1.46684,-6.29729c0,0 2.28324,-0.9957 3.52255,-0.71507c0.88662,0.20075 2.3298,1.83879 3.72335,2.50203c1.62051,0.77128 3.24578,-0.45737 3.24578,-0.45737l-1.36443,6.14566c0,0 -1.81271,0.82088 -3.58574,0.38065c-1.33829,-0.33229 -2.5871,-1.91808 -3.39444,-2.09638c-1.31836,-0.29114 -3.61391,0.53778 -3.61391,0.53778z" fill="#2fe200" stroke="none" stroke-width="0" stroke-linecap="butt"/></g></g></svg>